<svg xmlns="http://www.w3.org/2000/svg" viewBox="0 0 100 100"><defs><style>.cls-1{fill:#3b4052;}.cls-2{fill:#2f3440;}</style></defs><title>zin-100x100</title><g id="Layer_2" data-name="Layer 2"><g id="Layer_1-2" data-name="Layer 1"><rect class="cls-1" width="100" height="100"/><path class="cls-2" d="M30.17,32.17c-2.54,1.11-2.67-5.74-3.15-7.29-.17.16-1.26,2.91-1,7.17-.58.73-1.28,1.17-1.74.74-.87-5,.7-10.87,2.92-10.87s1.68,4.58,2.56,6.93c.47-2.05.28-6.62,2.51-7.86A11.58,11.58,0,0,0,11.66,31.45a12.33,12.33,0,0,1,2.69-3c2.19-2.07,3.46-3.31,3.22-3.46-.54-.33-2,.56-3.31.94-1.55.45-2.25-.22-2.45-.57s1.72-1.64,3.89-2c2-.34,3.66.71,3.91,1.67,0,2.14-3.91,5.2-5.09,7.1a17.7,17.7,0,0,0,5.94-2.63A14.44,14.44,0,0,1,21,24.57c.93-1.24,2.24-1,2.61-.34a15.23,15.23,0,0,0-.8,7.54c.31,2.14-1.18,2.66-1.39,2.23A8.84,8.84,0,0,1,20.58,31c-2.67,2.53-5.35,3.5-7.1,3.36A11.58,11.58,0,0,0,33.35,23.44C31.37,25.22,33.15,30.86,30.17,32.17Zm-7.86-9.44c-1.07,0-1.68-.46-1.69-1a2.14,2.14,0,0,1,1.46-2c.9-.41,2.26,0,2.3,1.12A2.15,2.15,0,0,1,22.31,22.73Z"/><polygon class="cls-2" points="30.96 36.21 31.21 36.21 31.21 36.83 31.32 36.83 31.32 36.21 31.57 36.21 31.57 36.12 30.96 36.12 30.96 36.21"/><polygon class="cls-2" points="32 36.59 31.78 36.12 31.66 36.12 31.66 36.83 31.78 36.83 31.78 36.35 31.96 36.73 32.04 36.73 32.23 36.34 32.23 36.83 32.34 36.83 32.34 36.12 32.23 36.12 32 36.59"/><path class="cls-2" d="M74.71,18.55a.5.5,0,1,1,.49.49A.47.47,0,0,1,74.71,18.55Zm.89,0a.4.4,0,1,0-.79,0,.4.4,0,1,0,.79,0Zm-.15.31h0c-.15,0-.13-.23-.27-.23h-.06v.23H75v-.62h.22a.19.19,0,0,1,.2.19.15.15,0,0,1-.12.16c.1,0,.08.17.16.17h0Zm-.26-.33a.09.09,0,0,0,.1-.1.09.09,0,0,0-.1-.09h-.1v.19Z"/><path class="cls-2" d="M54,21.65l2.1-2.71H54v-.8h3.31v.8l-2.08,2.71h2.08v.79H54Z"/><path class="cls-2" d="M61.38,18.14v2.52c0,1.37-.76,1.81-1.68,1.81A1.57,1.57,0,0,1,58,20.66V18.14h1v2.59c0,.47.17.86.71.86s.69-.39.69-.86V18.14Z"/><path class="cls-2" d="M66.64,18.14v4.3h-1V20l-1,2.44h-.49L63.1,20v2.41h-1v-4.3h1.06l1.23,2.6,1.24-2.6Z"/><path class="cls-2" d="M67.41,18.14h1.73c.88,0,1.38.34,1.38,1.15s-.46.87-.68.87h0a1,1,0,0,1,.91,1c0,.9-.67,1.22-1.42,1.22H67.41ZM69,19.89c.41,0,.56-.18.56-.48s-.21-.47-.65-.47H68.4v.95ZM69,21.65c.39,0,.62-.13.62-.54s-.26-.54-.64-.54h-.6v1.08Z"/><path class="cls-2" d="M75.16,22.44h-1l-.34-1H72.36l-.33,1H71l1.57-4.3h1Zm-1.61-1.76-.47-1.41-.47,1.41Z"/><path class="cls-2" d="M54,24.39h1v4.29H54Z"/><path class="cls-2" d="M56.7,26.24v2.44h-1V24.39h1l1.43,2.55V24.39h1v4.29h-1Z"/><path class="cls-2" d="M62.33,25.65a1,1,0,0,0-.89-.47c-.36,0-.58.16-.58.4,0,.82,2.18.26,2.18,1.89,0,.61-.46,1.25-1.63,1.25a1.89,1.89,0,0,1-1.79-.91l.59-.55a1.57,1.57,0,0,0,1.2.66c.38,0,.59-.16.59-.42,0-.92-2.21-.24-2.21-1.91,0-.66.56-1.23,1.57-1.23a1.62,1.62,0,0,1,1.65.85Z"/><path class="cls-2" d="M64.64,25.18H63.38v-.79h3.45v.79h-1.2v3.5h-1Z"/><path class="cls-2" d="M70.93,27.91v.76a2.42,2.42,0,0,1-.5,0c-1.39,0-1-1.64-1.85-1.56h-.1v1.54h-1V24.39h1.36c1.11,0,1.68.39,1.68,1.38a1.18,1.18,0,0,1-.7,1.09c.39.38.38,1.05.9,1.05ZM68.48,26.4h.27c.48,0,.82-.21.82-.6s-.28-.62-.75-.62h-.34Z"/><path class="cls-2" d="M74.64,24.39v2.52c0,1.36-.77,1.81-1.69,1.81a1.58,1.58,0,0,1-1.7-1.81V24.39h1V27c0,.47.16.86.7.86s.7-.39.7-.86V24.39Z"/><path class="cls-2" d="M78.76,27.89a1.85,1.85,0,0,1-1.59.83,2,2,0,0,1-2-2.18c0-1.41.73-2.18,1.94-2.18a1.55,1.55,0,0,1,1.7,1.56l-.91.14s0-.83-.78-.83c-.55,0-.93.42-.93,1.31s.52,1.31,1.08,1.31a1.32,1.32,0,0,0,1-.55Z"/><path class="cls-2" d="M80.32,25.18H79.06v-.79h3.45v.79H81.3v3.5h-1Z"/><path class="cls-2" d="M82.69,26.54a2,2,0,1,1,3.91,0,2,2,0,1,1-3.91,0Zm2.88,0c0-1-.42-1.31-.93-1.31s-.93.33-.93,1.31.42,1.33.93,1.33S85.57,27.52,85.57,26.54Z"/><path class="cls-2" d="M90.61,27.91v.76a2.42,2.42,0,0,1-.5,0c-1.4,0-1-1.64-1.85-1.56h-.1v1.54h-1V24.39h1.36c1.11,0,1.68.39,1.68,1.38a1.16,1.16,0,0,1-.7,1.09c.4.38.39,1.05.91,1.05ZM88.16,26.4h.27c.47,0,.82-.21.82-.6s-.28-.62-.75-.62h-.34Z"/><path class="cls-2" d="M55,32.48v2.45H54V30.64h1l1.43,2.55V30.64h1v4.29h-1Z"/><path class="cls-2" d="M58.21,30.64H60.9v.79H59.19v1h1.29v.77H59.19v1H60.9v.79H58.21Z"/><path class="cls-2" d="M62.79,31.43H61.52v-.79H65v.79h-1.2v3.5h-1Z"/><path class="cls-2" d="M70.64,30.64h1.1l-1.23,4.29H69.35l-.71-2.59-.72,2.59H66.75l-1.23-4.29h1.15l.72,3.19.86-3.19h.82l.81,3.19Z"/><path class="cls-2" d="M71.88,32.79a2,2,0,1,1,3.91,0,2,2,0,1,1-3.91,0Zm2.88,0c0-1-.42-1.32-.93-1.32s-.93.34-.93,1.32.42,1.33.93,1.33S74.76,33.77,74.76,32.79Z"/><path class="cls-2" d="M79.8,34.16v.75a2,2,0,0,1-.5.05c-1.4,0-1-1.65-1.85-1.56h-.1v1.54h-1V30.64h1.36c1.11,0,1.68.39,1.68,1.38a1.14,1.14,0,0,1-.7,1.08c.4.39.39,1.06.91,1.06Zm-2.45-1.51h.27c.47,0,.82-.21.82-.6s-.28-.62-.75-.62h-.34Z"/><path class="cls-2" d="M84,34.16v.75a1.82,1.82,0,0,1-.49.05c-1.36,0-1-1.6-1.86-1.6h-.23v1.57h-1V30.64h1v1.94H82l.92-2h1l-1.13,2.25c.54.46.51,1.27,1.06,1.27Z"/><path class="cls-2" d="M84.67,76.9C82.13,78,82,71.17,81.52,69.61c-.17.17-1.26,2.92-1,7.17-.58.73-1.28,1.18-1.74.75-.87-5,.7-10.87,2.92-10.87s1.68,4.58,2.56,6.92c.47-2,.28-6.62,2.51-7.86A11.58,11.58,0,0,0,66.16,76.19a12.33,12.33,0,0,1,2.69-3c2.19-2.07,3.46-3.31,3.22-3.46-.54-.33-2,.56-3.31.94-1.55.45-2.25-.22-2.45-.57s1.72-1.65,3.89-2c2-.35,3.66.71,3.91,1.66,0,2.14-3.91,5.21-5.09,7.1,2-.26,4.65-1.8,5.94-2.62a14.44,14.44,0,0,1,.57-4.89c.93-1.25,2.24-1,2.61-.34a15.21,15.21,0,0,0-.8,7.54c.31,2.14-1.18,2.66-1.39,2.23a8.84,8.84,0,0,1-.87-3c-2.67,2.53-5.35,3.5-7.1,3.36A11.59,11.59,0,0,0,87.85,68.17C85.87,70,87.65,75.59,84.67,76.9Zm-7.86-9.44c-1.07,0-1.68-.46-1.69-1a2.16,2.16,0,0,1,1.46-2c.9-.4,2.26.05,2.3,1.13A2.14,2.14,0,0,1,76.81,67.46Z"/><polygon class="cls-2" points="85.46 80.95 85.71 80.95 85.71 81.56 85.82 81.56 85.82 80.95 86.06 80.95 86.06 80.85 85.46 80.85 85.46 80.95"/><polygon class="cls-2" points="86.5 81.32 86.28 80.85 86.16 80.85 86.16 81.56 86.28 81.56 86.28 81.08 86.46 81.47 86.54 81.47 86.73 81.08 86.73 81.56 86.84 81.56 86.84 80.85 86.73 80.85 86.5 81.32"/><path class="cls-2" d="M31.38,63.29a.49.49,0,1,1,1,0,.49.49,0,0,1-1,0Zm.89,0a.39.39,0,0,0-.4-.41.41.41,0,0,0,0,.81A.38.38,0,0,0,32.27,63.29Zm-.15.3h0c-.14,0-.12-.24-.26-.24h-.07v.23h-.1V63h.22a.18.18,0,0,1,.2.18.15.15,0,0,1-.12.16c.09,0,.08.18.15.18h0Zm-.27-.32a.1.1,0,0,0,.11-.1c0-.06,0-.09-.1-.09h-.11v.19Z"/><path class="cls-2" d="M10.67,66.38l2.1-2.71h-2.1v-.79H14v.79L11.9,66.38H14v.79H10.67Z"/><path class="cls-2" d="M18.05,62.88V65.4c0,1.36-.77,1.81-1.69,1.81a1.58,1.58,0,0,1-1.7-1.81V62.88h1v2.59c0,.47.16.86.7.86s.7-.39.7-.86V62.88Z"/><path class="cls-2" d="M23.3,62.88v4.29h-1V64.76l-1.06,2.45h-.49l-1-2.45v2.41h-1V62.88h1l1.23,2.6,1.25-2.6Z"/><path class="cls-2" d="M24.07,62.88H25.8c.88,0,1.39.33,1.39,1.15s-.46.86-.68.86h0A1,1,0,0,1,27.42,66c0,.9-.67,1.21-1.43,1.21H24.07Zm1.54,1.74c.41,0,.56-.18.56-.48s-.2-.47-.65-.47h-.46v1Zm.07,1.76c.4,0,.62-.13.62-.53s-.25-.54-.64-.54h-.6v1.07Z"/><path class="cls-2" d="M31.82,67.17h-1l-.33-1H29l-.33,1h-1l1.58-4.29h1Zm-1.6-1.75L29.75,64l-.47,1.41Z"/><path class="cls-2" d="M10.68,69.13h1v4.29h-1Z"/><path class="cls-2" d="M13.37,71v2.45h-1V69.13h1l1.43,2.55V69.13h1v4.29h-1Z"/><path class="cls-2" d="M19,70.39a1,1,0,0,0-.89-.48c-.35,0-.58.16-.58.4,0,.82,2.19.27,2.19,1.9,0,.6-.46,1.25-1.63,1.25a1.87,1.87,0,0,1-1.79-.92l.58-.54a1.58,1.58,0,0,0,1.21.65c.37,0,.59-.16.59-.41,0-.92-2.22-.24-2.22-1.92,0-.66.57-1.23,1.58-1.23,1.34,0,1.64.85,1.64.85Z"/><path class="cls-2" d="M21.31,69.92H20.05v-.79h3.44v.79h-1.2v3.5h-1Z"/><path class="cls-2" d="M27.59,72.65v.75a1.82,1.82,0,0,1-.49,0c-1.4,0-1-1.65-1.85-1.56h-.1v1.54h-1V69.13h1.36c1.11,0,1.68.39,1.68,1.38a1.14,1.14,0,0,1-.7,1.08c.4.39.39,1.06.9,1.06Zm-2.44-1.51h.27c.47,0,.82-.21.82-.6s-.28-.62-.75-.62h-.34Z"/><path class="cls-2" d="M31.3,69.13v2.51c0,1.37-.76,1.82-1.68,1.82a1.57,1.57,0,0,1-1.7-1.82V69.13h1v2.59c0,.47.17.85.71.85s.7-.38.7-.85V69.13Z"/><path class="cls-2" d="M35.42,72.63a1.82,1.82,0,0,1-1.58.83,2,2,0,0,1-2.06-2.18c0-1.41.73-2.19,1.94-2.19a1.55,1.55,0,0,1,1.7,1.57l-.91.14s0-.84-.78-.84c-.54,0-.93.43-.93,1.32s.52,1.31,1.09,1.31a1.32,1.32,0,0,0,1-.56Z"/><path class="cls-2" d="M37,69.92H35.73v-.79h3.44v.79H38v3.5H37Z"/><path class="cls-2" d="M39.36,71.28a2,2,0,1,1,1.94,2.18A1.93,1.93,0,0,1,39.36,71.28Zm2.88,0c0-1-.43-1.32-.94-1.32s-.92.34-.92,1.32.42,1.33.92,1.33S42.24,72.26,42.24,71.28Z"/><path class="cls-2" d="M47.27,72.65v.75a1.86,1.86,0,0,1-.5,0c-1.39,0-1-1.65-1.85-1.56h-.1v1.54h-1V69.13H45.2c1.11,0,1.68.39,1.68,1.38a1.15,1.15,0,0,1-.7,1.08c.39.39.39,1.06.9,1.06Zm-2.45-1.51h.27c.48,0,.83-.21.83-.6s-.29-.62-.76-.62h-.34Z"/><path class="cls-2" d="M11.66,77.22v2.45h-1V75.38h1l1.43,2.55V75.38h1v4.29h-1Z"/><path class="cls-2" d="M14.87,75.38h2.69v.79h-1.7v1h1.28v.78H15.86v.95h1.7v.79H14.87Z"/><path class="cls-2" d="M19.45,76.17H18.19v-.79h3.44v.79h-1.2v3.5h-1Z"/><path class="cls-2" d="M27.31,75.38h1.1l-1.23,4.29H26l-.7-2.6-.73,2.6H23.42l-1.23-4.29h1.15l.71,3.19.86-3.19h.82l.82,3.19Z"/><path class="cls-2" d="M28.55,77.53a2,2,0,1,1,1.94,2.17A1.93,1.93,0,0,1,28.55,77.53Zm2.88,0c0-1-.43-1.32-.94-1.32s-.92.34-.92,1.32.42,1.33.92,1.33S31.43,78.5,31.43,77.53Z"/><path class="cls-2" d="M36.46,78.89v.76a1.86,1.86,0,0,1-.5,0c-1.39,0-1-1.65-1.85-1.57H34v1.54H33V75.38h1.36c1.11,0,1.68.39,1.68,1.38a1.15,1.15,0,0,1-.7,1.08c.39.39.39,1,.9,1ZM34,77.39h.27c.48,0,.83-.21.83-.6s-.29-.62-.76-.62H34Z"/><path class="cls-2" d="M40.7,78.89v.76a1.86,1.86,0,0,1-.5,0c-1.36,0-1-1.6-1.85-1.6h-.23v1.57h-1V75.38h1v1.93h.34l.22,0,.92-2h1l-1.13,2.25c.54.46.5,1.26,1,1.26Z"/></g></g></svg>