<?xml version="1.0" encoding="UTF-8" standalone="no"?>
<!DOCTYPE svg PUBLIC "-//W3C//DTD SVG 1.1//EN" "http://www.w3.org/Graphics/SVG/1.1/DTD/svg11.dtd">
<svg width="100%" height="100%" viewBox="0 0 2317 613" version="1.1" xmlns="http://www.w3.org/2000/svg" xmlns:xlink="http://www.w3.org/1999/xlink" xml:space="preserve" xmlns:serif="http://www.serif.com/" style="fill-rule:evenodd;clip-rule:evenodd;stroke-linejoin:round;stroke-miterlimit:1.41421;">
    <g transform="matrix(4.16667,0,0,4.16667,0,0)">
        <path d="M551.656,41.374C555.196,64.489 543.008,84.188 522.448,89.183C497.246,95.305 473.397,83.359 466.15,60.985C458.71,38.017 468.997,14.09 490.203,5.04C511.415,-4.013 535.532,2.859 545.259,21.274C540.001,25.013 534.66,28.813 529.391,32.562C516.854,20.375 507.6,17.91 497.242,23.739C487.857,29.021 483.484,40.7 486.297,52.976C488.661,63.296 496.793,70.542 506.792,71.238C517.459,71.981 525.423,68.058 528.497,60.042C522.229,60.042 516.18,60.042 509.678,60.042C509.678,53.561 509.678,47.691 509.678,41.374C523.642,41.374 537.507,41.374 551.656,41.374Z" style="fill:rgb(120,122,124);fill-rule:nonzero;"/>
        <path d="M170.062,46.105C170.086,61.893 181.001,73.513 195.689,73.39C210.458,73.265 221.12,61.674 221.049,45.821C220.978,30.116 209.86,18.235 195.389,18.399C180.725,18.566 170.036,30.258 170.062,46.105ZM195.75,1.235C221.197,1.298 240.798,20.919 240.681,46.212C240.564,71.43 220.714,90.887 195.269,90.724C169.772,90.561 149.998,70.792 150.263,45.732C150.531,20.399 170.186,1.173 195.75,1.235Z" style="fill:rgb(235,69,153);fill-rule:nonzero;"/>
        <path d="M453.371,90.473C435.15,74.017 417.665,58.227 399.153,41.508C399.153,58.064 399.153,73.388 399.153,89.18C392.386,89.18 386.351,89.18 379.903,89.18C379.903,60.271 379.903,31.567 379.903,1.387C398.196,17.216 415.68,32.345 434.209,48.378C434.209,32.631 434.209,17.859 434.209,2.682C441.042,2.682 446.94,2.682 453.371,2.682C453.371,31.478 453.371,60.308 453.371,90.473Z" style="fill:rgb(120,122,124);fill-rule:nonzero;"/>
        <path d="M19.191,52.284C28.761,54.376 37.722,51.651 41.185,45.879C44.447,40.442 44.067,30.119 40.432,25.421C36.463,20.289 26.54,17.84 19.191,20.339C19.191,30.845 19.191,41.444 19.191,52.284ZM18.898,70.439C18.898,76.898 18.898,82.819 18.898,89.232C12.378,89.232 6.485,89.232 0,89.232C0,60.538 0,31.882 0,2.477C9.537,2.477 18.94,2.435 28.341,2.51C30.326,2.526 32.318,2.904 34.289,3.224C52.298,6.152 63.005,18.363 63.055,35.996C63.106,53.859 52.787,65.959 34.711,69.05C31.279,69.637 27.767,69.77 24.29,70.085C22.822,70.218 21.346,70.281 18.898,70.439Z" style="fill:rgb(235,69,153);fill-rule:nonzero;"/>
        <path d="M107.251,89.284C107.251,60.301 107.251,31.732 107.251,2.698C113.4,2.698 119.256,2.698 125.777,2.698C125.777,25.757 125.777,48.496 125.777,72.038C129.284,72.195 141.836,72.038 141.836,72.038C141.836,72.038 153.325,84.938 157.183,89.284C139.924,89.284 123.757,89.284 107.251,89.284Z" style="fill:rgb(235,69,153);fill-rule:nonzero;"/>
        <rect x="348.825" y="2.679" width="18.361" height="86.551" style="fill:rgb(121,122,125);fill-rule:nonzero;"/>
        <rect x="75.247" y="2.747" width="18.212" height="86.526" style="fill:rgb(235,69,153);fill-rule:nonzero;"/>
        <path d="M245.972,2.465C245.972,2.465 297.831,8.426 325.318,54.166C343.545,84.497 334.122,141.418 327.25,147.001C326.606,142.491 334.336,80.579 306.635,58.675C278.934,36.772 266.908,36.192 257.459,27.538C245.972,17.016 245.972,2.465 245.972,2.465Z" style="fill:rgb(121,122,125);fill-rule:nonzero;"/>
        <path d="M335.895,2.465C335.895,2.465 284.035,8.426 256.549,54.166C238.322,84.497 247.745,141.418 254.616,147.001C255.26,142.491 247.53,80.579 275.231,58.675C302.933,36.772 314.958,36.192 324.406,27.538C335.895,17.016 335.895,2.465 335.895,2.465Z" style="fill:rgb(235,69,153);fill-rule:nonzero;"/>
        <path d="M547.433,4.914L547.433,7.07L548.82,7.07C549.182,7.07 549.461,6.977 549.657,6.791C549.854,6.605 549.952,6.338 549.952,5.992C549.952,5.653 549.85,5.389 549.644,5.199C549.438,5.009 549.153,4.914 548.788,4.914L547.433,4.914ZM547.433,7.695L547.433,9.925L546.73,9.925L546.73,4.289L548.882,4.289C549.426,4.289 549.862,4.442 550.189,4.748C550.516,5.054 550.679,5.461 550.679,5.968C550.679,6.361 550.578,6.701 550.378,6.988C550.178,7.275 549.901,7.474 549.546,7.586L550.851,9.925L550.027,9.925L548.82,7.695L547.433,7.695Z" style="fill:rgb(120,122,124);fill-rule:nonzero;"/>
        <path d="M548.763,1.573C545.824,1.573 543.434,3.964 543.434,6.902C543.434,9.841 545.824,12.232 548.763,12.232C551.702,12.232 554.093,9.841 554.093,6.902C554.093,3.964 551.702,1.573 548.763,1.573ZM548.763,13.232C545.273,13.232 542.434,10.393 542.434,6.902C542.434,3.413 545.273,0.573 548.763,0.573C552.253,0.573 555.093,3.413 555.093,6.902C555.093,10.393 552.253,13.232 548.763,13.232Z" style="fill:rgb(120,122,124);fill-rule:nonzero;"/>
    </g>
</svg>
