<?xml version="1.0" encoding="UTF-8" standalone="no"?>
<!DOCTYPE svg PUBLIC "-//W3C//DTD SVG 1.1//EN" "http://www.w3.org/Graphics/SVG/1.1/DTD/svg11.dtd">
<svg width="100%" height="100%" viewBox="0 0 512 200" version="1.1" xmlns="http://www.w3.org/2000/svg" xmlns:xlink="http://www.w3.org/1999/xlink" xml:space="preserve" xmlns:serif="http://www.serif.com/" style="fill-rule:evenodd;clip-rule:evenodd;stroke-linejoin:round;stroke-miterlimit:1.41421;">
    <g id="Artboard1" transform="matrix(1,0,0,0.390625,0,0)">
        <rect x="0" y="0" width="512" height="512" style="fill:none;"/>
        <g id="Layer-3" serif:id="Layer 3" transform="matrix(0.896642,0,0,2.2954,11.7002,18.094)">
            <g transform="matrix(1,0,0,1,459.75,140.256)">
                <path d="M0,-78.928L15.043,-78.928C15.062,-78.532 15.098,-78.114 15.098,-77.695C15.101,-55.139 15.105,-32.583 15.084,-10.028C15.083,-9 14.979,-7.937 14.699,-6.953C13.284,-1.975 8.964,0.093 3.827,-1.703C0.469,-2.878 -1.69,-5.419 -3.524,-8.295C-7.95,-15.235 -12.349,-22.192 -16.771,-29.133C-21.172,-36.041 -25.59,-42.939 -30.002,-49.84C-30.233,-50.202 -30.474,-50.559 -30.929,-50.864L-30.929,-2.067L-45.948,-2.067L-45.948,-78.928C-45.576,-78.949 -45.195,-78.99 -44.814,-78.991C-40.734,-78.995 -36.655,-78.972 -32.576,-79.013C-31.802,-79.021 -31.373,-78.786 -30.959,-78.123C-20.968,-62.128 -10.951,-46.149 -0.938,-30.167C-0.708,-29.8 -0.459,-29.446 0,-28.757L0,-78.928Z" style="fill:rgb(36,44,57);fill-rule:nonzero;"/>
            </g>
            <g transform="matrix(1,0,0,1,289.06,102.326)">
                <path d="M0,-5.163C0.372,-5.131 0.566,-5.1 0.76,-5.1C5.32,-5.097 9.88,-5.059 14.439,-5.124C15.538,-5.141 16.674,-5.374 17.72,-5.725C22.889,-7.454 25.88,-12.85 24.928,-18.592C24.069,-23.771 21.018,-26.94 15.849,-27.453C12.522,-27.784 9.13,-27.762 5.789,-27.559C2.04,-27.334 0.016,-24.885 0.001,-21.095C-0.008,-18.455 0,-15.815 0,-13.175L0,-5.163ZM0.002,7.394L0.002,35.858L-15.067,35.858L-15.067,34.634C-15.067,14.717 -15.09,-5.201 -15.033,-25.118C-15.027,-27.215 -14.752,-29.362 -14.248,-31.398C-12.866,-36.968 -8.898,-39.709 -3.473,-40.556C-1.389,-40.881 0.741,-41.035 2.851,-41.038C8.086,-41.045 13.335,-41.137 18.554,-40.803C29.91,-40.078 38.672,-31.377 39.887,-20.066C40.632,-13.122 39.322,-6.79 34.819,-1.297C32.73,1.251 30.158,3.173 27.146,4.509C26.856,4.637 26.572,4.779 26.289,4.921C26.26,4.936 26.25,4.987 26.167,5.14C31.791,15.295 37.45,25.515 43.186,35.873C42.693,35.907 42.358,35.95 42.023,35.951C36.983,35.955 31.944,35.94 26.905,35.97C26.147,35.974 25.689,35.8 25.312,35.076C20.729,26.296 16.095,17.544 11.524,8.759C11,7.751 10.442,7.319 9.252,7.359C6.225,7.463 3.192,7.394 0.002,7.394" style="fill:rgb(36,44,57);fill-rule:nonzero;"/>
            </g>
            <g transform="matrix(1,0,0,1,386.36,99.9847)">
                <path d="M0,-0.159C0,-1.518 0.015,-2.878 -0.002,-4.237C-0.053,-8.282 -0.295,-12.306 -1.498,-16.205C-2.986,-21.031 -5.976,-24.359 -11.05,-25.471C-14.296,-26.183 -17.564,-26.149 -20.786,-25.305C-24.343,-24.373 -26.97,-22.255 -28.603,-18.928C-29.945,-16.193 -30.632,-13.265 -30.778,-10.268C-31.009,-5.52 -31.198,-0.756 -31.045,3.99C-30.925,7.722 -30.568,11.503 -29.768,15.142C-28.557,20.642 -25.115,24.231 -19.377,25.252C-16.512,25.763 -13.64,25.734 -10.809,25.035C-7.156,24.134 -4.371,22.028 -2.723,18.63C-1.98,17.1 -1.425,15.447 -1.017,13.792C0.113,9.21 0.021,4.519 0,-0.159M-46.159,-0.812C-46.27,-7.022 -46.043,-13.204 -44.446,-19.252C-42.808,-25.456 -39.876,-30.833 -34.429,-34.54C-30.891,-36.948 -26.925,-38.247 -22.721,-38.824C-16.813,-39.635 -10.913,-39.615 -5.103,-38.147C4.255,-35.785 10.055,-29.71 12.863,-20.61C14.371,-15.723 14.968,-10.697 15.015,-5.602C15.075,0.791 15.381,7.212 14.263,13.54C13.662,16.94 12.854,20.361 11.636,23.581C8.791,31.106 3.235,35.805 -4.552,37.726C-11.646,39.476 -18.814,39.472 -25.94,37.904C-35.181,35.87 -40.96,30.069 -43.739,21.131C-45.585,15.195 -46.092,9.079 -46.157,2.906C-46.17,1.667 -46.159,0.427 -46.159,-0.812" style="fill:rgb(36,44,57);fill-rule:nonzero;"/>
            </g>
            <g transform="matrix(1,0,0,1,543.892,112.57)">
                <path d="M0,-25.713L-13.876,-25.713C-14.051,-27.072 -14.118,-28.392 -14.402,-29.664C-15.542,-34.764 -19.298,-37.93 -24.961,-38.333C-27.286,-38.499 -29.707,-38.468 -31.978,-38.005C-37.181,-36.943 -39.883,-33.201 -40.903,-28.3C-41.591,-24.996 -41.98,-21.581 -42.038,-18.207C-42.13,-12.78 -41.958,-7.34 -41.647,-1.92C-41.522,0.277 -40.934,2.503 -40.219,4.6C-38.816,8.716 -35.886,11.328 -31.631,12.351C-27.911,13.247 -24.19,13.335 -20.523,12.081C-17.125,10.92 -14.78,8.558 -13.151,5.427C-13.01,5.154 -12.909,4.826 -12.904,4.521C-12.879,3.005 -12.893,1.488 -12.893,-0.192L-22.126,-0.192C-22.52,-4.383 -22.036,-8.103 -18.557,-10.803C-16.959,-12.042 -15.144,-12.723 -13.122,-12.737C-8.963,-12.766 -4.804,-12.751 -0.646,-12.749C-0.489,-12.749 -0.334,-12.696 -0.001,-12.636L-0.001,-11.256C-0.001,-5.537 -0.201,0.191 0.06,5.897C0.286,10.833 -1.683,14.636 -4.959,17.999C-9.813,22.983 -15.882,25.368 -22.661,26.143C-27.829,26.734 -32.966,26.422 -38.005,25.109C-47.374,22.671 -53.022,16.455 -55.783,7.373C-57.116,2.987 -57.814,-1.526 -57.889,-6.083C-57.992,-12.434 -58.1,-18.809 -57.678,-25.138C-57.177,-32.677 -54.551,-39.479 -48.833,-44.756C-44.736,-48.538 -39.795,-50.576 -34.347,-51.4C-27.426,-52.447 -20.641,-52.049 -14.144,-49.159C-5.702,-45.405 -0.874,-39.048 -0.154,-29.734C-0.064,-28.58 -0.002,-27.423 0.063,-26.267C0.072,-26.115 0.03,-25.96 0,-25.713" style="fill:rgb(36,44,57);fill-rule:nonzero;"/>
            </g>
            <g transform="matrix(1,0,0,1,207.423,138.456)">
                <path d="M0,-77.13L56.102,-77.13L56.102,-63.804L35.597,-63.804L35.597,-0.305C33.103,-0.305 30.711,0 28.429,-0.368C23.665,-1.137 20.493,-5.204 20.492,-10.074C20.485,-27.429 20.489,-44.783 20.489,-62.138L20.489,-63.711L0,-63.711L0,-77.13Z" style="fill:rgb(36,44,57);fill-rule:nonzero;"/>
            </g>
            <g transform="matrix(1,0,0,1,165.544,65.9805)">
                <path d="M0,30.189C-0.208,30.351 -0.37,30.469 -0.522,30.597C-3.978,33.504 -7.433,36.414 -10.959,39.382C-13.408,37.257 -15.366,34.777 -16.836,31.921C-22.689,20.556 -19.5,7.329 -9.025,-0.558C2.445,-9.193 19.044,-8.919 30.197,0.09C30.567,0.388 30.917,0.711 31.354,1.09C27.929,4.419 24.563,7.691 21.382,10.783C19.312,9.756 17.485,8.523 15.47,7.911C9.055,5.964 3.343,7.338 -1.215,12.36C-5.62,17.211 -5.395,24.305 -0.874,29.248C-0.607,29.538 -0.338,29.825 0,30.189" style="fill:rgb(36,44,57);fill-rule:nonzero;"/>
            </g>
            <g transform="matrix(1,0,0,1,179.555,135.185)">
                <path d="M0,-30.341C3.555,-33.331 7.011,-36.237 10.469,-39.141C10.617,-39.265 10.797,-39.351 11.026,-39.496C14.345,-36.452 16.826,-32.885 18.299,-28.654C22.008,-18.001 18.284,-6.543 8.857,0.485C-2.771,9.155 -19.681,8.703 -30.637,-0.572C-30.85,-0.753 -31.054,-0.944 -31.386,-1.239C-28,-4.536 -24.637,-7.811 -21.202,-11.154C-20.734,-10.81 -20.297,-10.486 -19.857,-10.165C-13.432,-5.487 -4.102,-6.498 1.158,-12.443C5.267,-17.086 5.375,-23.809 1.414,-28.718C0.991,-29.241 0.531,-29.734 0,-30.341" style="fill:rgb(36,44,57);fill-rule:nonzero;"/>
            </g>
            <g transform="matrix(-11.8673,-161.578,-161.578,11.8673,66.024,186.291)">
                <path d="M0.876,0.045C0.858,0.156 0.794,0.232 0.687,0.267C0.591,0.299 0.502,0.278 0.424,0.215C0.435,0.201 0.446,0.188 0.458,0.175C0.555,0.256 0.689,0.24 0.766,0.158C0.807,0.114 0.828,0.061 0.827,0.001C0.826,-0.066 0.799,-0.12 0.751,-0.164C0.763,-0.177 0.774,-0.19 0.785,-0.204C0.841,-0.152 0.873,-0.091 0.879,-0.021C0.88,0 0.879,0.022 0.876,0.045Z" style="fill:url(#_Radial1);fill-rule:nonzero;"/>
            </g>
            <g transform="matrix(-11.8673,-161.578,-161.578,11.8673,77.1557,185.474)">
                <path d="M0.605,-0.045C0.501,-0.131 0.364,-0.107 0.292,-0.025C0.251,0.02 0.231,0.073 0.234,0.134C0.237,0.198 0.263,0.251 0.31,0.293C0.299,0.306 0.287,0.319 0.276,0.332C0.215,0.281 0.17,0.188 0.185,0.084C0.2,-0.021 0.273,-0.109 0.377,-0.139C0.473,-0.168 0.56,-0.148 0.638,-0.086C0.626,-0.071 0.616,-0.058 0.605,-0.045Z" style="fill:url(#_Radial2);fill-rule:nonzero;"/>
            </g>
            <g transform="matrix(-11.8673,-161.578,-161.578,11.8673,71.683,185.876)">
                <path d="M0.753,0.076C0.739,0.136 0.701,0.174 0.641,0.188C0.593,0.2 0.55,0.188 0.511,0.157C0.531,0.135 0.549,0.113 0.569,0.091C0.581,0.101 0.596,0.106 0.613,0.105C0.629,0.104 0.644,0.096 0.655,0.083C0.664,0.073 0.669,0.061 0.67,0.047C0.671,0.027 0.663,0.01 0.648,-0.003C0.667,-0.026 0.686,-0.047 0.705,-0.07C0.736,-0.04 0.754,-0.007 0.756,0.03C0.757,0.045 0.756,0.06 0.753,0.076Z" style="fill:url(#_Radial3);fill-rule:nonzero;"/>
            </g>
            <g transform="matrix(-11.8673,-161.578,-161.578,11.8673,72.1456,185.842)">
                <path d="M0.493,0.042C0.463,0.019 0.429,0.026 0.409,0.046C0.398,0.057 0.392,0.07 0.391,0.085C0.39,0.105 0.398,0.122 0.411,0.135C0.392,0.157 0.373,0.179 0.355,0.2C0.319,0.172 0.296,0.117 0.307,0.062C0.32,0.001 0.357,-0.039 0.417,-0.055C0.466,-0.067 0.511,-0.056 0.549,-0.024C0.53,-0.002 0.512,0.02 0.493,0.042Z" style="fill:url(#_Radial4);fill-rule:nonzero;"/>
            </g>
            <g transform="matrix(-11.8673,-161.578,-161.578,11.8673,80.7475,185.21)">
                <path d="M0.677,-0.106C0.535,-0.227 0.334,-0.206 0.218,-0.084C0.151,-0.013 0.119,0.071 0.125,0.169C0.131,0.262 0.17,0.339 0.239,0.4C0.234,0.407 0.228,0.413 0.223,0.419C0.141,0.351 0.082,0.229 0.103,0.092C0.125,-0.047 0.226,-0.162 0.363,-0.2C0.485,-0.233 0.613,-0.198 0.693,-0.126C0.687,-0.119 0.682,-0.113 0.677,-0.106Z" style="fill:url(#_Radial5);fill-rule:nonzero;"/>
            </g>
            <g transform="matrix(-11.8673,-161.578,-161.578,11.8673,65.1447,186.356)">
                <path d="M0.955,0.067C0.928,0.207 0.819,0.321 0.676,0.35C0.612,0.363 0.549,0.36 0.487,0.339C0.443,0.324 0.403,0.302 0.367,0.271C0.373,0.264 0.378,0.258 0.384,0.252C0.453,0.309 0.532,0.337 0.621,0.332C0.71,0.326 0.786,0.291 0.847,0.225C0.909,0.158 0.939,0.078 0.936,-0.013C0.933,-0.11 0.893,-0.19 0.822,-0.255C0.827,-0.261 0.832,-0.267 0.837,-0.274C0.905,-0.217 0.954,-0.129 0.961,-0.029C0.963,0.002 0.962,0.034 0.955,0.067Z" style="fill:url(#_Radial6);fill-rule:nonzero;"/>
            </g>
            <g transform="matrix(-11.8673,-161.578,-161.578,11.8673,57.0889,186.948)">
                <path d="M0.02,0.028C0.029,0.148 0.081,0.246 0.169,0.326C0.165,0.331 0.161,0.336 0.157,0.34C-0.047,0.164 -0.041,-0.134 0.111,-0.3C0.115,-0.297 0.12,-0.293 0.125,-0.289C0.049,-0.196 0.012,-0.092 0.02,0.028Z" style="fill:url(#_Radial7);fill-rule:nonzero;"/>
            </g>
            <g transform="matrix(-11.8673,-161.578,-161.578,11.8673,86.3739,184.797)">
                <path d="M0.95,0.431C0.946,0.427 0.941,0.423 0.936,0.419C1.013,0.327 1.049,0.221 1.041,0.103C1.032,-0.017 0.981,-0.116 0.893,-0.195C0.897,-0.2 0.9,-0.205 0.904,-0.21C1.002,-0.124 1.051,-0.011 1.059,0.1C1.069,0.224 1.028,0.347 0.95,0.431Z" style="fill:url(#_Radial8);fill-rule:nonzero;"/>
            </g>
            <g transform="matrix(1,0,0,1,101.531,202.013)">
                <path d="M0,-15.572C0.202,-15.268 0.347,-15.027 0.515,-14.802C0.729,-14.516 0.96,-14.245 1.298,-13.826C-0.066,-12.806 -1.361,-11.761 -2.732,-10.829C-10.23,-5.736 -18.444,-2.42 -27.393,-0.913C-30.941,-0.315 -34.514,-0.08 -38.101,-0.015C-38.966,0 -39.834,-0.158 -40.771,-0.242L-40.771,-2.224C-25.645,-1.681 -12.105,-5.981 0,-15.572" style="fill:rgb(226,30,196);fill-rule:nonzero;"/>
            </g>
            <g transform="matrix(-11.8673,-161.578,-161.578,11.8673,26.8121,189.171)">
                <path d="M1.156,-0.204C1.155,-0.157 1.147,-0.112 1.133,-0.067C1.118,-0.023 1.098,0.018 1.07,0.056C1.067,0.053 1.065,0.051 1.063,0.048C1.064,0.046 1.065,0.045 1.066,0.043C1.1,-0.005 1.122,-0.059 1.135,-0.116C1.141,-0.142 1.145,-0.169 1.145,-0.196C1.145,-0.2 1.146,-0.202 1.15,-0.203C1.152,-0.203 1.153,-0.204 1.156,-0.204Z" style="fill:url(#_Radial9);fill-rule:nonzero;"/>
            </g>
            <g transform="matrix(1,0,0,1,453.299,188.702)">
                <path d="M0,-31.224L6.035,-31.224L6.035,0.051L-0.051,0.051L-0.051,-17.985C-0.122,-17.998 -0.192,-18.013 -0.264,-18.027C-0.43,-17.726 -0.611,-17.433 -0.759,-17.122C-2.37,-13.735 -3.954,-10.333 -5.601,-6.962C-5.943,-6.26 -6.422,-5.571 -6.994,-5.046C-8.159,-3.981 -9.662,-4.072 -10.731,-5.237C-11.236,-5.787 -11.65,-6.45 -11.983,-7.121C-13.67,-10.517 -15.315,-13.934 -16.979,-17.341C-17.109,-17.61 -17.267,-17.865 -17.592,-18.076L-17.592,0.059L-23.669,0.059L-23.669,-31.156C-23.469,-31.206 -23.319,-31.275 -23.171,-31.276C-21.374,-31.283 -19.578,-31.28 -17.668,-31.28C-14.757,-25.338 -11.849,-19.401 -8.801,-13.179C-5.8,-19.332 -2.912,-25.252 0,-31.224" style="fill:rgb(36,44,57);fill-rule:nonzero;"/>
            </g>
            <g transform="matrix(1,0,0,1,480.97,183.586)">
                <path d="M0,-20.665C-0.259,-19.122 -0.201,-14.761 0.084,-13.876C2.172,-13.876 4.282,-13.859 6.392,-13.881C8.829,-13.906 9.971,-15.118 9.892,-17.549C9.825,-19.579 8.794,-20.624 6.755,-20.657C4.961,-20.686 3.167,-20.664 1.373,-20.665L0,-20.665ZM0.042,-8.378C-0.056,-8.192 -0.121,-8.126 -0.121,-8.059C-0.136,-6.542 -0.151,-5.024 -0.148,-3.508C-0.144,-1.356 0.639,-0.425 2.811,-0.25C4.318,-0.128 5.847,-0.142 7.357,-0.232C9.086,-0.335 10.045,-1.28 10.229,-3.033C10.328,-3.973 10.309,-4.95 10.163,-5.882C9.913,-7.475 8.817,-8.34 7.132,-8.369C5.216,-8.402 3.299,-8.378 1.383,-8.378L0.042,-8.378ZM-6.242,-26.099C-6.013,-26.129 -5.855,-26.167 -5.698,-26.167C-1.062,-26.15 3.575,-26.153 8.211,-26.091C9.074,-26.078 9.957,-25.877 10.79,-25.628C13.474,-24.828 15.126,-23.019 15.721,-20.286C16.325,-17.511 16.173,-14.865 14.134,-12.643C13.627,-12.09 13.003,-11.644 12.379,-11.102C12.527,-10.989 12.663,-10.863 12.818,-10.771C14.721,-9.646 15.884,-7.988 16.266,-5.825C16.64,-3.707 16.537,-1.606 15.733,0.42C14.68,3.075 12.646,4.622 9.903,5.012C6.454,5.502 2.953,5.497 -0.489,4.95C-4.334,4.339 -5.985,2.32 -6.285,-1.675C-6.307,-1.953 -6.324,-2.233 -6.324,-2.513C-6.328,-10.227 -6.33,-17.943 -6.329,-25.658C-6.329,-25.771 -6.285,-25.886 -6.242,-26.099" style="fill:rgb(36,44,57);fill-rule:nonzero;"/>
            </g>
            <g transform="matrix(1,0,0,1,408.68,189.382)">
                <path d="M0,-31.893L6.093,-31.893L6.093,-30.533C6.093,-24.137 6.095,-17.742 6.092,-11.346C6.089,-5.656 2.387,-1.381 -3.258,-0.493C-6.385,0 -9.406,-0.271 -12.234,-1.737C-15.658,-3.51 -17.537,-6.357 -17.839,-10.217C-17.88,-10.734 -17.894,-11.254 -17.894,-11.773C-17.898,-17.969 -17.896,-24.164 -17.896,-30.36L-17.896,-31.872L-11.829,-31.872L-11.829,-30.578C-11.829,-24.541 -11.833,-18.506 -11.823,-12.47C-11.822,-11.793 -11.79,-11.11 -11.692,-10.441C-11.283,-7.632 -9.466,-5.956 -6.629,-5.765C-6.034,-5.725 -5.423,-5.72 -4.835,-5.807C-1.632,-6.281 -0.019,-8.198 -0.007,-11.599C0.015,-17.914 0,-24.23 0,-30.545L0,-31.893Z" style="fill:rgb(36,44,57);fill-rule:nonzero;"/>
            </g>
            <g transform="matrix(1,0,0,1,519.27,167.898)">
                <path d="M0,10.205C1.328,10.51 6.562,10.454 7.472,10.124C6.302,6.209 5.131,2.29 3.96,-1.629C3.867,-1.62 3.773,-1.61 3.68,-1.601C2.454,2.332 1.229,6.264 0,10.205M17.047,20.865L10.711,20.865C10.149,19.172 9.563,17.407 8.958,15.584L-1.588,15.584C-2.151,17.306 -2.729,19.07 -3.316,20.868L-9.676,20.868C-9.11,19.221 -8.592,17.682 -8.056,16.148C-5.372,8.467 -2.689,0.784 0.013,-6.891C0.275,-7.638 0.604,-8.376 1.013,-9.053C1.482,-9.833 2.201,-10.316 3.152,-10.424C5.247,-10.663 6.229,-10.108 6.971,-8.018C9.135,-1.929 11.254,4.176 13.392,10.274C14.473,13.361 15.557,16.448 16.635,19.536C16.775,19.939 16.889,20.353 17.047,20.865" style="fill:rgb(36,44,57);fill-rule:nonzero;"/>
            </g>
            <g transform="matrix(1,0,0,1,370.09,183.207)">
                <path d="M0,-20.289L-12.676,-20.289L-12.676,-25.583C-11.825,-25.838 5.467,-25.927 7.299,-25.664C7.299,-24.145 7.341,-22.599 7.269,-21.057C7.251,-20.67 6.89,-20.285 6.646,-19.926C2.361,-13.61 -1.93,-7.299 -6.216,-0.984C-6.434,-0.665 -6.624,-0.327 -6.913,0.143L7.215,0.143L7.215,5.541C6.958,5.569 6.656,5.63 6.354,5.631C1.315,5.637 -3.723,5.638 -8.762,5.63C-9.158,5.629 -9.559,5.579 -9.95,5.511C-12.892,4.993 -14.274,2.839 -13.375,-0.01C-13.056,-1.018 -12.522,-1.995 -11.923,-2.875C-8.236,-8.293 -4.502,-13.679 -0.786,-19.077C-0.564,-19.398 -0.36,-19.732 0,-20.289" style="fill:rgb(36,44,57);fill-rule:nonzero;"/>
            </g>
            <g transform="matrix(1,0,0,1,316.337,174.86)">
                <path d="M0,-4.136C0.265,-4.074 0.379,-4.028 0.494,-4.026C1.17,-4.014 1.847,-3.993 2.523,-4.013C3.157,-4.032 3.804,-4.029 4.418,-4.158C5.26,-4.338 5.639,-4.962 5.654,-5.954C5.669,-6.913 5.327,-7.503 4.602,-7.771C3.836,-8.054 0.902,-8.031 0,-7.725L0,-4.136ZM-0.035,-0.867C-0.035,0.264 -0.092,1.259 -0.019,2.244C0.049,3.149 0.522,3.611 1.456,3.688C2.409,3.766 3.375,3.759 4.33,3.701C5.118,3.652 5.706,3.13 5.816,2.364C5.906,1.742 5.905,1.082 5.801,0.462C5.66,-0.376 5.169,-0.818 4.323,-0.852C2.931,-0.907 1.536,-0.867 -0.035,-0.867M-3.349,-10.968C-2.141,-10.968 -0.949,-10.969 0.243,-10.967C1.762,-10.965 3.284,-11.021 4.799,-10.944C8.119,-10.774 10.111,-7.696 8.853,-4.621C8.52,-3.808 7.83,-3.142 7.266,-2.356C9.214,-1.123 9.668,0.782 9.273,2.996C8.885,5.177 7.581,6.581 5.371,6.743C3.433,6.885 1.452,6.815 -0.479,6.582C-2.425,6.346 -3.455,5.08 -3.473,3.132C-3.516,-1.425 -3.481,-5.983 -3.475,-10.54C-3.474,-10.615 -3.433,-10.689 -3.349,-10.968" style="fill:rgb(36,44,57);fill-rule:nonzero;"/>
            </g>
            <g transform="matrix(1,0,0,1,336.93,174.576)">
                <path d="M0,-3.576C1.139,-6.06 2.167,-8.303 3.223,-10.603L6.985,-10.603C6.694,-10.01 6.465,-9.523 6.221,-9.045C4.861,-6.38 3.47,-3.73 2.157,-1.043C1.855,-0.426 1.71,0.317 1.68,1.01C1.612,2.605 1.659,4.205 1.658,5.803L1.658,7.042L-1.647,7.042C-1.674,6.782 -1.732,6.482 -1.733,6.181C-1.742,4.463 -1.772,2.743 -1.723,1.027C-1.699,0.195 -1.906,-0.527 -2.284,-1.253C-3.718,-4.013 -5.123,-6.79 -6.534,-9.563C-6.694,-9.877 -6.821,-10.206 -7.003,-10.618L-3.296,-10.618C-2.233,-8.347 -1.173,-6.082 0,-3.576" style="fill:rgb(36,44,57);fill-rule:nonzero;"/>
            </g>
            <g transform="matrix(1,0,0,1,540.606,163.029)">
                <path d="M0,-4.328L0,-4.954L3.539,-4.954L3.539,-4.328L2.063,-4.328L2.063,0.626L1.476,0.626L1.476,-4.328L0,-4.328Z" style="fill:rgb(36,44,57);fill-rule:nonzero;"/>
            </g>
            <g transform="matrix(1,0,0,1,545.452,163.655)">
                <path d="M0,-5.58L1.396,-0.891L2.795,-5.58L3.601,-5.58L3.601,0L3.044,0L3.044,-4.642L3.031,-4.642L1.648,0L1.146,0L-0.234,-4.642L-0.247,-4.642L-0.247,0L-0.805,0L-0.805,-5.58L0,-5.58Z" style="fill:rgb(36,44,57);fill-rule:nonzero;"/>
            </g>
        </g>
    </g>
    <defs>
        <radialGradient id="_Radial1" cx="0" cy="0" r="1" gradientUnits="userSpaceOnUse" gradientTransform="matrix(1,0,0,-1,-2.22045e-16,0.0950122)"><stop offset="0" style="stop-color:rgb(250,99,71);stop-opacity:1"/><stop offset="0.5" style="stop-color:rgb(250,47,89);stop-opacity:1"/><stop offset="1" style="stop-color:rgb(226,30,196);stop-opacity:1"/></radialGradient>
        <radialGradient id="_Radial2" cx="0" cy="0" r="1" gradientUnits="userSpaceOnUse" gradientTransform="matrix(1,0,0,-1,-2.22045e-16,0.163906)"><stop offset="0" style="stop-color:rgb(250,99,71);stop-opacity:1"/><stop offset="0.5" style="stop-color:rgb(250,47,89);stop-opacity:1"/><stop offset="1" style="stop-color:rgb(226,30,196);stop-opacity:1"/></radialGradient>
        <radialGradient id="_Radial3" cx="0" cy="0" r="1" gradientUnits="userSpaceOnUse" gradientTransform="matrix(1,0,0,-1,-2.22045e-16,0.130036)"><stop offset="0" style="stop-color:rgb(250,99,71);stop-opacity:1"/><stop offset="0.5" style="stop-color:rgb(250,47,89);stop-opacity:1"/><stop offset="1" style="stop-color:rgb(226,30,196);stop-opacity:1"/></radialGradient>
        <radialGradient id="_Radial4" cx="0" cy="0" r="1" gradientUnits="userSpaceOnUse" gradientTransform="matrix(1,0,0,-1,-2.22045e-16,0.132898)"><stop offset="0" style="stop-color:rgb(250,99,71);stop-opacity:1"/><stop offset="0.5" style="stop-color:rgb(250,47,89);stop-opacity:1"/><stop offset="1" style="stop-color:rgb(226,30,196);stop-opacity:1"/></radialGradient>
        <radialGradient id="_Radial5" cx="0" cy="0" r="1" gradientUnits="userSpaceOnUse" gradientTransform="matrix(1,0,0,-1,-2.22045e-16,0.186135)"><stop offset="0" style="stop-color:rgb(250,99,71);stop-opacity:1"/><stop offset="0.5" style="stop-color:rgb(250,47,89);stop-opacity:1"/><stop offset="1" style="stop-color:rgb(226,30,196);stop-opacity:1"/></radialGradient>
        <radialGradient id="_Radial6" cx="0" cy="0" r="1" gradientUnits="userSpaceOnUse" gradientTransform="matrix(1,0,0,-1,0,0.0895704)"><stop offset="0" style="stop-color:rgb(250,99,71);stop-opacity:1"/><stop offset="0.5" style="stop-color:rgb(250,47,89);stop-opacity:1"/><stop offset="1" style="stop-color:rgb(226,30,196);stop-opacity:1"/></radialGradient>
        <radialGradient id="_Radial7" cx="0" cy="0" r="1" gradientUnits="userSpaceOnUse" gradientTransform="matrix(1,0,0,-1,-2.22045e-16,0.0397131)"><stop offset="0" style="stop-color:rgb(250,99,71);stop-opacity:1"/><stop offset="0.5" style="stop-color:rgb(250,47,89);stop-opacity:1"/><stop offset="1" style="stop-color:rgb(226,30,196);stop-opacity:1"/></radialGradient>
        <radialGradient id="_Radial8" cx="0" cy="0" r="1" gradientUnits="userSpaceOnUse" gradientTransform="matrix(1,0,0,-1,-2.22045e-16,0.220956)"><stop offset="0" style="stop-color:rgb(250,99,71);stop-opacity:1"/><stop offset="0.5" style="stop-color:rgb(250,47,89);stop-opacity:1"/><stop offset="1" style="stop-color:rgb(226,30,196);stop-opacity:1"/></radialGradient>
        <radialGradient id="_Radial9" cx="0" cy="0" r="1" gradientUnits="userSpaceOnUse" gradientTransform="matrix(1,0,0,-1,-2.22045e-16,-0.147668)"><stop offset="0" style="stop-color:rgb(250,99,71);stop-opacity:1"/><stop offset="0.5" style="stop-color:rgb(250,47,89);stop-opacity:1"/><stop offset="1" style="stop-color:rgb(226,30,196);stop-opacity:1"/></radialGradient>
    </defs>
</svg>
