<?xml version="1.0" encoding="UTF-8" standalone="no"?>
<!DOCTYPE svg PUBLIC "-//W3C//DTD SVG 1.1//EN" "http://www.w3.org/Graphics/SVG/1.1/DTD/svg11.dtd">
<svg width="100%" height="100%" viewBox="0 0 2073 696" version="1.1" xmlns="http://www.w3.org/2000/svg" xmlns:xlink="http://www.w3.org/1999/xlink" xml:space="preserve" xmlns:serif="http://www.serif.com/" style="fill-rule:evenodd;clip-rule:evenodd;stroke-linejoin:round;stroke-miterlimit:1.41421;">
    <g transform="matrix(4.16667,0,0,4.16667,108.465,62.1232)">
        <g id="Artboard1">
            <g>
                <g>
                    <path d="M178.205,100.953C184.467,90.545 223.161,43.89 223.161,38.739C223.161,27.545 207.02,21.732 193.079,21.732C176.322,21.732 150.086,31.379 150.956,35.943C151.818,40.513 161.029,41.267 167.397,40.972C173.771,40.684 194.649,34.596 198.25,34.596C199.821,34.596 204.674,34.596 204.674,36.388C204.674,40.864 157.21,84.393 157.21,103.64C157.21,109.793 164.424,114.387 172.715,114.387C191.043,114.387 229.994,100.793 227.911,95.133C225.825,89.481 191.674,99.95 178.205,100.953Z" style="fill:rgb(35,31,32);fill-rule:nonzero;"/>
                    <path d="M268.12,34.375C268.12,31.8 264.542,28.329 261.967,28.329C255.932,28.659 256.596,30.459 254.801,32.139C251.454,42.658 249.668,61.787 247.2,73.661C246.864,75.33 244.393,87.635 242.272,86.968C238.803,81.04 237.905,73.874 237.905,67.05C237.905,57.088 239.815,47.134 242.944,37.732C244.069,34.263 246.42,30.459 247.311,27.097L247.311,25.984C247.311,18.823 242.047,17.707 236.008,17.707C235.114,17.707 234.329,17.813 233.432,17.922C225.489,27.212 224.811,53.734 224.811,65.93C224.811,73.32 231.305,112.598 239.473,112.598C241.264,112.598 243.061,113.039 244.854,113.039C253.688,113.039 258.614,88.985 259.51,82.16C261.183,70.179 264.766,58.546 266.44,46.568C267,42.77 268.12,38.291 268.12,34.375Z" style="fill:rgb(35,31,32);fill-rule:nonzero;"/>
                    <path d="M334.311,43.554C324.127,43.554 314.057,71.522 309.917,79.473C309.465,70.633 310.143,34.711 306.221,29.567C303.209,25.533 300.745,24.749 295.811,24.749C272.883,24.749 265.606,91.772 266.051,109.127L266.163,111.359C267.842,111.81 269.752,112.14 271.649,112.14C275.002,112.14 276.682,110.246 278.809,107.67C281.161,83.946 283.176,64.928 294.141,43.215C294.7,53.065 292.905,110.129 304.881,110.129C309.917,110.129 314.616,104.76 316.862,100.73C320.768,93.682 324.686,86.632 329.057,79.809C330.504,90.994 329.391,102.75 331.514,113.937C331.956,116.625 332.973,119.307 336.211,119.307C339.567,119.307 345.725,114.724 345.725,111.137C345.725,97.155 344.606,83.162 344.606,69.289C344.606,60.332 348.071,43.554 334.311,43.554Z" style="fill:rgb(35,31,32);fill-rule:nonzero;"/>
                    <path d="M365.368,58.941C365.292,54.733 365.338,50.281 365.532,45.375C365.622,43.026 364.784,38.827 365.61,36.624C369.752,34.21 376.02,33.114 380.725,33.07C382.936,33.053 385.989,33.942 385.872,36.96C385.643,42.699 373.28,50.92 365.368,58.941ZM373.446,63.974C376.471,59.174 402.741,47.732 400.985,31.703C400.12,23.806 391.948,22.05 385.557,21.8C378.559,21.525 350.639,24.013 350.303,32.622C350.206,35.083 350.983,37.717 351.143,40.186C351.389,46.241 351.635,51.457 351.649,57.503C351.715,71.397 351.032,91.821 354.93,99.168C355.778,100.752 357.375,101.416 358.854,101.465C361.307,101.566 365.293,100.246 369.852,98.244C368.165,88.76 366.893,80.836 366.139,72.754C374.702,76.403 387.737,81.771 385.825,90.879C384.768,95.916 380.688,98.51 366.907,103.039C360.547,105.137 355.879,107.293 353.377,108.432C352.124,109.047 350.364,109.982 350.311,111.549C350.168,115.017 357.836,116.973 360.29,117.064L366.811,116.877C376.932,116.156 402.469,104.644 402.907,93.463C403.667,74.275 388.03,69.932 373.446,63.974Z" style="fill:rgb(35,31,32);fill-rule:nonzero;"/>
                    <path d="M421.016,74.529C421.116,73.178 425.985,36.998 432.301,36.998C433.868,36.998 434.717,43.831 434.944,45.286C436.51,54.571 436.497,63.974 438.059,73.373C438.059,73.373 427.063,73.86 421.016,74.529ZM442.553,25.253C439.756,21.9 436.733,21.561 432.588,21.561C413.125,21.561 407.083,72.03 407.083,87.028C407.083,95.08 408.426,103.139 411,110.855C411.897,110.971 412.899,111.082 413.792,111.082C416.479,111.082 422.463,109.83 424.706,108.377C423.803,103.226 422.467,98.451 421.971,93.33C421.809,91.655 421.534,89.969 421.485,88.291C428.313,86.845 433.7,87.358 440.627,86.356C443.653,99.444 446.25,107.64 459.01,114.014L461.084,114.596C464.862,115.348 456.709,98.28 453.948,75.218C451.932,61.124 451.836,36.335 442.553,25.253Z" style="fill:rgb(35,31,32);fill-rule:nonzero;"/>
                    <path d="M455.008,24.628L456.629,24.628C457.459,24.628 458.329,24.752 458.329,25.775C458.329,26.93 457.372,26.989 456.288,26.989L455.008,26.989L455.008,24.628ZM455.008,28.058L456.288,28.058L458.456,31.308L459.641,31.308L457.407,27.97C458.592,27.84 459.52,27.198 459.52,25.825C459.52,24.289 458.579,23.553 456.85,23.553L453.817,23.553L453.817,31.308L455.008,31.308L455.008,28.058Z" style="fill:rgb(35,31,32);fill-rule:nonzero;"/>
                    <path d="M456.487,21.838C459.538,21.838 461.985,24.325 461.985,27.401C461.985,30.471 459.538,32.949 456.487,32.949C453.444,32.949 450.989,30.471 450.989,27.401C450.989,24.325 453.444,21.838 456.487,21.838ZM456.487,34.025C460.188,34.025 463.172,31.06 463.172,27.401C463.172,23.729 460.188,20.763 456.487,20.763C452.792,20.763 449.795,23.729 449.795,27.401C449.795,31.06 452.792,34.025 456.487,34.025Z" style="fill:rgb(35,31,32);fill-rule:nonzero;"/>
                </g>
                <g>
                    <path d="M68.491,137C106.315,137 136.985,106.336 136.985,68.511C136.985,30.678 106.315,0.015 68.491,0.015C30.668,0.015 0,30.678 0,68.511C0,106.336 30.668,137 68.491,137Z" style="fill:rgb(35,31,32);fill-rule:nonzero;"/>
                    <path d="M130.227,68.511C130.227,102.609 102.587,130.248 68.491,130.248C34.391,130.248 6.752,102.609 6.752,68.511C6.752,34.414 34.391,6.766 68.491,6.766C102.587,6.766 130.227,34.414 130.227,68.511Z" style="fill:rgb(218,226,81);fill-rule:nonzero;"/>
                    <path d="M65.793,70.909C65.793,70.909 72.535,75.041 66.189,77.662C59.833,80.285 51.723,78.105 44.487,75.913C39.188,74.157 33.882,71.965 29.059,68.9C25.682,66.711 22.79,64.515 20.379,61.451C19.417,59.695 18.455,57.503 19.896,55.753C22.31,53.996 29.1,52.376 29.741,52.241C38.489,50.351 45.232,49.123 47.256,51.227C48.361,52.506 47.502,53.605 46.514,53.897C43.028,54.939 33.606,57.232 28.578,59.695C31.955,64.079 37.739,66.272 43.046,68.022C43.526,68.022 47.387,68.9 48.351,68.9C56.062,69.336 63.539,67.156 68.356,73.297" style="fill:rgb(35,31,32);fill-rule:nonzero;"/>
                    <path d="M86.434,58.263C87.395,58.741 95.062,64.619 98.58,69.731C101.515,73.989 105.519,76.696 107.579,75.076C111.521,71.959 95.111,37.048 95.111,37.048C95.111,37.048 93.223,31.603 91.252,25.957C90.029,22.439 87.256,16.835 83.057,18.726C78.084,20.963 82.574,28.367 84.024,32.71C89.328,44.284 97.522,53.926 102.34,65.5C99.935,63.567 98.762,61.298 96.072,58.741C92.616,55.458 87.533,51.041 82.718,53.454C78.384,55.376 79.262,61.552 79.681,65.5C79.866,68.632 81.79,84.989 77.612,94.799C74.147,103.381 61.617,112.844 62.383,115.162C61.414,117.574 69.553,120.465 72.933,120.947C77.276,121.912 80.641,119.504 83.057,116.123C92.701,97.807 87.875,77.551 86.434,58.263Z" style="fill:rgb(35,31,32);fill-rule:nonzero;"/>
                    <path d="M55.047,32.784C54.985,32.958 54.929,33.135 54.885,33.312C54.856,33.397 54.838,33.474 54.819,33.556C54.418,35.174 54.46,36.853 54.85,38.503C55.265,40.436 56.117,42.426 57.412,44.243C60.758,48.914 65.849,50.805 69.303,48.861C69.494,48.773 70.959,47.511 71.271,47.066C80.641,36.158 67.452,22.893 60.85,26.452C57.816,28.087 56.015,30.198 55.149,32.481C55.11,32.581 55.082,32.681 55.047,32.784Z" style="fill:rgb(35,31,32);fill-rule:nonzero;"/>
                </g>
            </g>
        </g>
    </g>
</svg>
